<svg xmlns="http://www.w3.org/2000/svg"
  width="280"
  height="60"
  viewBox="0 0 140 30"
  >
  <g transform="matrix(1.25 0 0 -1.25 -5.39 175.9)">
    <path
      d="M13.12 123.184l-1.288.14-1.21.372v-.418l.592-.652 1.86-.836"
      fill="#fff"/>
    <path
      d="M11.042 123.045s1.44-.605 1.906-.465l.046-.557-1.3.278-.792.56.14.185"
      fill="#dcd9d8"
      fill-rule="evenodd"/>
    <path
      d="M20.46 120.795c-.79.023-1.502.117-2.126.293.042.255-.037.506.027.69.175.126.466.124.73.153-.228.113-.548.157-.81.093-.006.177-.086.287-.134.426.443.157 1.49 1.195 2.08.85.28-.162.4-1.096.42-1.55.02-.376-.034-.756-.187-.955"
      fill="#d33833"
      fill-rule="evenodd"/>
    <path
      d="M20.46 120.795c-.79.023-1.502.117-2.126.293.042.255-.037.506.027.69.175.126.466.124.73.153-.228.113-.548.157-.81.093-.006.177-.086.287-.134.426.443.157 1.49 1.195 2.08.85.28-.162.4-1.096.42-1.55.02-.376-.034-.756-.187-.955z"
      fill="none"
      stroke="#d33833"
      stroke-width=".297"/>
    <path
      d="M16.687 122.084l-.007-.18c-.246-.162-.644-.16-.914-.296.4-.017.712-.113.984-.248l-.018-.45c-.45-.31-.864-.77-1.395-1.06-.25-.137-1.133-.49-1.4-.428-.152.036-.166.223-.226.4-.128.38-.425.982-.45 1.553-.033.72-.106 1.927.67 1.78.627-.12 1.355-.41 1.84-.674.296-.16.468-.36.917-.396"
      fill="#d33833"
      fill-rule="evenodd"
      />
    <path
      d="M16.687 122.084l-.007-.18c-.246-.162-.644-.16-.914-.296.4-.017.712-.113.984-.248l-.018-.45c-.45-.31-.864-.77-1.395-1.06-.25-.137-1.133-.49-1.4-.428-.152.036-.166.223-.226.4-.128.38-.425.982-.45 1.553-.033.72-.106 1.927.67 1.78.627-.12 1.355-.41 1.84-.674.296-.16.468-.36.917-.396z"
      fill="none"
      stroke="#d33833"
      stroke-width=".297"
      />
    <path
      d="M17.136 121.225c-.07.392-.15.504-.118.846 1.047.7 1.243-1.197.118-.845"
      fill="#d33833"
      fill-rule="evenodd"
      />
    <path
      d="M17.136 121.225c-.07.392-.15.504-.118.846 1.047.7 1.243-1.197.118-.845z"
      fill="none"
      stroke="#d33833"
      stroke-width=".297"
      />
    <path
      d="M18.65 120.906s-.324.465-.092.605c.233.14.465 0 .604.233.14.233 0 .372.047.65.045.28.278.326.51.373.233.046.884.14.976-.093l-.278.837-.558.186-1.767-1.023-.093-.51v-1.024M13.77 119.372c-.056.726-.115 1.45-.18 2.175-.1 1.082.26.893 1.198.893.143 0 .882-.17.935-.278.253-.518-.424-.403.292-.794.604-.33 1.672.2 1.427.933-.136.164-.712.052-.918.16l-1.09.563c-.46.24-1.53.59-2.022.255-1.248-.85.08-2.97.524-3.856"
      fill="#ef3d3a"
      fill-rule="evenodd"
      />
    <path
      d="M14.993 135.842c-1.266.295-1.896-.53-2.28-1.386-.343.083-.207.55-.12.787.227.624 1.14 1.454 1.887 1.34.322-.047.757-.34.513-.74M21.167 134.4l.06-.003c.286-.595.534-1.225.895-1.75-.242-.563-1.832-1.062-1.808-.05.344.15.938.03 1.243.223-.177.484-.43.895-.39 1.58M15.642 134.384c.272-.498.36-1.02.746-1.398.174-.17.512-.376.345-.847-.04-.112-.326-.36-.49-.41-.605-.177-2.01-.035-1.535.717.5-.023 1.17-.324 1.544.038-.287.458-.798 1.365-.61 1.9M20.94 129.322c-.91-.583-1.923-1.218-3.412-1.07-.318.276-.44.89-.13 1.298.16-.277.06-.786.508-.862.845-.145 1.83.517 2.437.748.376.635-.033.87-.373 1.278-.695.838-1.627 1.877-1.593 3.13.28.205.305-.31.345-.403.363-.85 1.277-1.935 1.943-2.662.164-.18.434-.35.464-.47.085-.344-.226-.757-.19-.986M8.957 129.937c-.285.163-.353.88-.687.9-.478.028-.39-.93-.39-1.49-.328.3-.386 1.218-.144 1.69-.276.136-.4-.15-.552-.25.197 1.428 2.087.663 1.773-.85M21.52 128.728c-.424-.805-1.023-1.692-2.265-1.718-.025.26-.044.656.002.813.95.09 1.535.574 2.262.905M15.57 128.206c.792-.416 2.248-.46 3.324-.43.058-.235.056-.527.06-.814-1.385-.07-3.02.273-3.383 1.244M15.42 127.43c.548-1.375 2.43-1.217 4.017-1.18-.07-.177-.222-.388-.41-.464-.508-.207-1.91-.364-2.617.01-.448.24-.736.776-.98 1.092-.12.152-.71.54-.01.542"
      fill="#231f20"
      fill-rule="evenodd"
      />
    <path
      d="M18.57 123.335c-.33-.216-.61-.485-.93-.716-.704-.036-1.09.048-1.606.453.008.032.06.018.062.057.754-.336 1.713.137 2.475.205"
      fill="#f0d6b7"
      fill-rule="evenodd"
      />
    <path
      d="M16.368 120.05c-9.366 9.227-4.683 4.614 0 0zm2.99.306c-.256-1.783 1.516-.51 1.516-.51-.274.44-.847.823-1.515.51zm-1.424.506c-.29.03-.534-.332-.91-.175-.086-.095-.164-.198-.25-.29.603-1.016 2.31-1.65 2.225.003-.473-.03-.735.427-1.066.462zm-.916 1.21c-.03-.343.05-.455.118-.847 1.125-.352.93 1.544-.118.846zm-1.248.41c-.485.264-1.213.552-1.84.672-.776.15-.703-1.06-.67-1.78.025-.57.322-1.173.45-1.552.06-.177.075-.364.226-.4.268-.062 1.15.29 1.4.428.532.29.945.75 1.396 1.06l.018.45c-.272.135-.585.23-.984.248.27.136.668.134.914.296l.007.18c-.45.035-.62.235-.917.397zm-4.632.84c-.402-.408 1.13-.965 1.617-.995-.003.258.147.502.117.688-.58.1-1.34.034-1.734.307zm4.958-.192c-.002-.04-.054-.025-.062-.057.517-.405.902-.49 1.607-.454.32.23.6.5.93.715-.76-.068-1.72-.54-2.474-.205zm4.55-1.38c-.02.454-.14 1.388-.42 1.55-.59.345-1.637-.693-2.08-.85.048-.14.128-.25.134-.427.262.064.582.02.81-.092-.264-.028-.555-.026-.73-.15-.063-.186.016-.437-.026-.692.624-.176 1.336-.27 2.125-.293.152.2.205.58.187.956zm-10.185 1.177c-.126.09-.98 1.203-1.098 1.156-1.547-.61-2.993-1.665-4.286-2.662.035-1.646 2.102-2.272 4.098-2.143 1 .064 3.138.198 3.63.582.558.433.168 1.116.044 1.803-.805.383-1.694.772-2.387 1.264zm9.37 1.022c1.288.624 1.52-2.337 1.015-3.29.078-.285.347-.394.456-.65-.325-.815 1.112-.89 1.53 1.415.053.257.193.818.162 1.047-.056.41-.613.714-.896.967-.52.468-.85.88-1.393 1.318-.22-.326-.694-.544-.874-.81zM7.512 135.38c-.614-.676-.486-1.942-.41-2.843 1.11.698 2.582-.055 2.568-1.243.53.014.2.662.103 1.08-.313 1.362.528 2.843.04 4.09-.952-.072-1.733-.46-2.3-1.084zm4.395 3.922c-1.39-.394-3.173-1.405-3.744-2.654.442.065.75.288 1.186.315.165.01.38-.07.57-.022.378.095.697.942.982 1.257.278.308.612.44.84.72.147.07.364.066.372.287-.063.068-.13.12-.206.098zm7.238-.37c-1.444.813-3.886 1.426-5.422.66-1.238-.617-2.913-1.64-3.484-2.934.534-1.25-.158-2.395-.202-3.663-.023-.675.318-1.265.344-2-.182-.3-.74-.338-1.126-.317-.13.65-.357 1.38-1.027 1.454-.948.104-1.64-.68-1.684-1.5-.05-.963.74-2.56 1.862-2.45.433.044.54.478 1.01.473.257-.51-.394-.67-.46-1.035-.018-.094.053-.463.095-.636.204-.84.657-1.93 1.104-2.57.567-.813 1.68-.935 2.88-1.015.214.46 1.003.422 1.517.302-.616.244-1.19.835-1.663 1.358-.544.6-1.096 1.245-1.124 2.03 1.03-1.43 1.88-2.677 3.753-3.305 1.417-.476 3.072.217 4.16.982.452.318.722.822 1.043 1.284 1.202 1.73 1.762 4.196 1.64 6.588-.052.986-.05 1.97-.38 2.632-.346.694-1.516 1.315-2.2.687-.127.675.57 1.092 1.387.85-.583.752-1.195 1.656-2.024 2.124zM5.114 119.066c-.192.594-.702 1.76-.79 2.353-.13.877.696.926 1.224 1.306.817.59 1.458.914 2.343 1.444.263.158 1.053.556 1.143.74.18.362-.307.874-.437 1.16-.205.45-.312.832-.34 1.276-.743.117-1.306.56-1.646 1.057-.562.824-.952 2.35-.465 3.51.038.09.228.27.256.41.056.276-.103.644-.113.937-.05 1.508.255 2.807 1.27 3.26.412 1.643 1.886 2.188 3.276 3.004.52.305 1.092.5 1.683.717 2.12.782 5.375.635 7.135-.696.747-.565 1.94-1.757 2.367-2.62 1.127-2.278 1.047-6.086.258-8.857-.106-.372-.26-.92-.474-1.366-.148-.31-.614-.935-.557-1.21.058-.286 1.06-1.047 1.275-1.254.387-.373 1.122-.87 1.182-1.34.064-.5-.048-2.255-1.288-3.777" fill="#231f20" fill-rule="evenodd"/><path d="M18.386 119.86c0-.14-.114-.255-.256-.255-.14 0-.255.115-.255.256 0 .142.114.257.255.257.142 0 .256-.115.256-.256"
      fill="#1d1919"
      fill-rule="evenodd"
      />
    <rect
      width="8.375"
      height=".49"
      x="5.361"
      y="-119.635"
      transform="scale(1 -1)"
      rx=".117"
      ry=".117"
      />
    <rect
      width="7.44"
      height=".49"
      x="15.028"
      y="-119.635"
      rx=".117"
      ry=".117"
      transform="scale(1 -1)"
      />
    <rect
      width="8.152"
      height=".49"
      x="5.361"
      y="-119.873"
      rx=".117"
      ry=".117"
      transform="scale(1 -1)"
      />
    <rect
      width="6.727"
      height=".49"
      x="15.741"
      y="-119.873"
      rx=".117"
      ry=".117"
      transform="scale(1 -1)"
      />
  </g>
  <text
    transform="matrix(1.25 0 0 1.25 -5.39 175.9)"
    y="-126.474"
    x="29.209"
    style="line-height:125%" font-size="32" font-family="sans-serif" letter-spacing="0" word-spacing="0">
    <tspan
      style="-inkscape-font-specification:Hack"
      y="-126.474"
      x="29.209"
      font-size="13"
      font-family="Hack">
        jenkins-cli
    </tspan>
  </text>
</svg>
